<mxfile host="app.diagrams.net" modified="2024-04-16T02:01:26.916Z" agent="Mozilla/5.0 (Windows NT 10.0; Win64; x64) AppleWebKit/537.36 (KHTML, like Gecko) Chrome/123.0.0.0 Safari/537.36" etag="76VzAijO4uPvPYZdsuFZ" version="24.2.5" type="device">
  <diagram id="6a731a19-8d31-9384-78a2-239565b7b9f0" name="Page-1">
    <mxGraphModel dx="954" dy="566" grid="1" gridSize="10" guides="1" tooltips="1" connect="1" arrows="1" fold="1" page="1" pageScale="1" pageWidth="1169" pageHeight="827" background="none" math="0" shadow="0">
      <root>
        <mxCell id="0" />
        <mxCell id="1" parent="0" />
        <mxCell id="lNoJA53u0EQEny7Ns_kL-75" value="顾客信息表" style="strokeWidth=2;html=1;shape=mxgraph.flowchart.database;whiteSpace=wrap;" parent="1" vertex="1">
          <mxGeometry x="520" y="280" width="70" height="60" as="geometry" />
        </mxCell>
        <mxCell id="lNoJA53u0EQEny7Ns_kL-78" value="" style="endArrow=classic;html=1;rounded=0;entryX=0.5;entryY=0;entryDx=0;entryDy=0;exitX=0.5;exitY=1;exitDx=0;exitDy=0;exitPerimeter=0;startArrow=classic;startFill=1;" parent="1" source="cL73IvsKQqSbGIAE9jVP-3" target="cL73IvsKQqSbGIAE9jVP-4" edge="1">
          <mxGeometry width="50" height="50" relative="1" as="geometry">
            <mxPoint x="380" y="290" as="sourcePoint" />
            <mxPoint x="381" y="330" as="targetPoint" />
          </mxGeometry>
        </mxCell>
        <mxCell id="cL73IvsKQqSbGIAE9jVP-3" value="顾客信息管理" style="strokeWidth=2;html=1;shape=mxgraph.flowchart.display;whiteSpace=wrap;" parent="1" vertex="1">
          <mxGeometry x="319" y="180" width="119" height="60" as="geometry" />
        </mxCell>
        <mxCell id="cL73IvsKQqSbGIAE9jVP-4" value="顾客信息管理程序" style="rounded=0;whiteSpace=wrap;html=1;" parent="1" vertex="1">
          <mxGeometry x="318.5" y="280" width="120" height="60" as="geometry" />
        </mxCell>
        <mxCell id="0lTSsKraW5yGEi91huna-1" style="edgeStyle=orthogonalEdgeStyle;rounded=0;orthogonalLoop=1;jettySize=auto;html=1;exitX=1;exitY=0.5;exitDx=0;exitDy=0;entryX=0;entryY=0.5;entryDx=0;entryDy=0;entryPerimeter=0;startArrow=classic;startFill=1;" edge="1" parent="1" source="cL73IvsKQqSbGIAE9jVP-4" target="lNoJA53u0EQEny7Ns_kL-75">
          <mxGeometry relative="1" as="geometry" />
        </mxCell>
      </root>
    </mxGraphModel>
  </diagram>
</mxfile>
